<svg xmlns="http://www.w3.org/2000/svg" width="76" height="76" viewBox="0 0 76 76">
  <defs>
    <style>
      .cls-1 {
        fill: #2847cc;
      }

      .cls-2 {
        fill: #fff;
      }
    </style>
  </defs>
  <g id="Group_327" data-name="Group 327" transform="translate(4266 -4160)">
    <rect id="Rectangle_239" data-name="Rectangle 239" class="cls-1" width="76" height="76" rx="8" transform="translate(-4266 4160)"/>
    <g id="Group_326" data-name="Group 326" transform="translate(-4249 4177)">
      <g id="Group_317" data-name="Group 317" transform="translate(0 10.957)">
        <path id="Path_161" data-name="Path 161" class="cls-2" d="M268.124,301.684,270,299.812l1.078-1.078,3.122-3.123c.185-.184,1.256-1.274,1.417-1.472a3.658,3.658,0,0,0,.783-1.658,3.777,3.777,0,0,0,.067-.406c0-.009,0-.018,0-.027a3.645,3.645,0,0,0-3.735-4.234H242.876a7.563,7.563,0,0,0,7.562,7.563h13.3l-20.86,20.86a7.562,7.562,0,0,0,10.7,0l9.205-9.205,11.42,11.42.169-.168a7.322,7.322,0,0,0,0-10.356Z" transform="translate(-242.876 -287.814)"/>
      </g>
      <circle id="Ellipse_36" data-name="Ellipse 36" class="cls-2" cx="5.307" cy="5.307" r="5.307" transform="translate(32.026)"/>
    </g>
  </g>
</svg>
